<svg xmlns="http://www.w3.org/2000/svg" width="1057" height="141" viewBox="0 0 1057 141">
  <path fill="#424240" fill-rule="evenodd" d="M1015.53,3.55 L1031.42,3.55 L1031.42,5.797 L1024.78,5.797 L1024.78,24.05 L1022.16,24.05 L1022.16,5.797 L1015.53,5.797 L1015.53,3.55 Z M1056.45,3.55 L1056.45,24.05 L1053.81,24.05 L1053.81,5.954 L1053.73,5.954 L1046.48,24.05 L1044.97,24.05 L1037.76,5.954 L1037.67,5.954 L1037.67,24.05 L1035.04,24.05 L1035.04,3.55 L1039.25,3.55 L1045.83,20.169 L1052.22,3.55 L1056.45,3.55 Z M792.78,89.126 L810.238,45.535 L827.705,89.126 L792.78,89.126 Z M679.719,112.743 L666.203,112.743 L666.203,83.318 L679.719,83.318 C692.067,83.318 704.475,85.473 704.475,98.569 C704.475,110.137 691.531,112.743 679.719,112.743 Z M666.203,30.831 L669.017,30.831 C672.403,30.831 676.329,30.831 679.719,31.387 C686.996,32.451 693.211,35.567 693.211,44.008 C693.211,52.368 686.996,55.505 679.719,56.593 C676.911,57.099 666.203,57.099 666.203,57.099 L666.203,30.831 Z M540.226,109.505 L473.549,109.505 L473.549,86.493 L518.659,86.493 L518.659,56.642 L473.549,56.642 L473.549,33.55 L540.226,33.55 L540.226,109.505 Z M284.933,87.912 L302.205,47.853 L319.212,87.912 L284.933,87.912 Z M166.93,66.504 C162.994,67.007 158.486,67.551 154.589,67.551 L150.095,67.551 L150.095,33.55 L154.589,33.55 C158.486,33.55 162.994,34.107 166.93,34.623 C175.877,36.188 183.142,40.377 183.142,50.319 C183.142,60.724 175.877,64.926 166.93,66.504 Z M942.2,87.054 L968.671,87.054 L968.671,103.38 C963.123,107.026 956.202,108.928 947.193,108.928 C925.873,108.928 910.709,93.394 910.709,71.704 L910.709,71.309 C910.709,50.782 925.689,33.432 945.079,33.432 C958.315,33.432 967.905,38.029 977.521,46.113 L999.395,19.8 C985.182,7.515 968.486,0.224 944.869,0.224 C903.233,0.224 867.78,31.972 867.78,71.123 L867.78,71.493 C867.78,75.104 868.081,78.616 868.63,82.031 L833.895,3.55 L787.734,3.55 L746.654,95.421 C744.397,79.673 733.714,69.715 714.044,67.063 C726.958,61.294 731.457,51.335 731.457,39.251 C731.457,13.524 712.319,3.55 684.199,3.55 L623.999,3.55 L623.999,109.505 L581.571,109.505 L581.584,3.844 L402.857,3.83 L364.243,97.483 L325.455,3.83 L280.134,3.91 L226.396,121.952 L226.302,121.913 L197.338,90.02 L192.103,84.267 C214.532,80.621 226.86,64.436 226.86,45.613 C226.86,16.874 202.774,3.818 171.397,3.818 L0,3.83 L0,33.405 L34.73,33.405 L34.73,139.517 L76.195,139.517 L76.195,33.405 L108.738,33.405 L108.738,139.517 L150.095,139.517 L150.042,86.918 L150.042,86.162 L190.419,139.172 L190.671,139.503 L190.671,139.517 L262.65,139.517 L272.155,117.671 L332.454,117.671 L341.681,139.172 L341.734,139.279 L341.827,139.517 L386.538,139.517 L432.297,33.099 L432.297,139.517 C432.297,139.517 640.519,139.517 688.161,139.517 C703.893,139.517 719.079,136.927 730.334,130.06 L725.84,139.538 L770.331,139.538 L781.525,115.896 L838.935,115.896 L849.643,139.538 L894.083,139.538 L881.897,112.005 C896.161,130.015 919.779,141 945.634,141 C970.018,141 989.806,131.965 1003.99,120.262 L1003.99,59.79 L942.2,59.79 L942.2,87.054 L942.2,87.054 Z"/>
</svg>
