<?xml version="1.0" encoding="UTF-8" standalone="no"?> <!-- Generator: Adobe Illustrator 21.1.0, SVG Export Plug-In . SVG Version: 6.00 Build 0) --> <svg xmlns:dc="http://purl.org/dc/elements/1.1/" xmlns:cc="http://creativecommons.org/ns#" xmlns:rdf="http://www.w3.org/1999/02/22-rdf-syntax-ns#" xmlns:svg="http://www.w3.org/2000/svg" xmlns="http://www.w3.org/2000/svg" xmlns:sodipodi="http://sodipodi.sourceforge.net/DTD/sodipodi-0.dtd" xmlns:inkscape="http://www.inkscape.org/namespaces/inkscape" id="Brush" x="0px" y="0px" viewBox="0 0 785.88544 206.39999" xml:space="preserve" inkscape:version="0.91 r13725" sodipodi:docname="adobe-target-Custom.svg" width="785.88544" height="206.39999"> <metadata id="metadata4305"></metadata> <defs id="defs4303"></defs> <style type="text/css" id="style4288"> .st0{fill-rule:evenodd;clip-rule:evenodd;fill:url(#SVGID_1_);} .st1{fill-rule:evenodd;clip-rule:evenodd;fill:#17D8FF;} .st2{fill-rule:evenodd;clip-rule:evenodd;fill:#CBF0FE;} </style> <radialGradient id="SVGID_1_" cx="97.710503" cy="81.619301" r="143.7928" gradientTransform="matrix(1.0909,0,0,1.093,-10.9091,-10.9302)" gradientUnits="userSpaceOnUse"> <stop offset="0" style="stop-color:#324447" id="stop4291"></stop> <stop offset="0.7669" style="stop-color:#051A1E" id="stop4293"></stop> </radialGradient> <circle style="opacity:1;fill:#051a1e;fill-opacity:1;stroke:#940082;stroke-width:0;stroke-miterlimit:4;stroke-dasharray:none;stroke-opacity:1" id="path4214" cx="103.3882" cy="103.58728" r="101.30148"></circle> <path class="st1" d="m 0,103.2 c 0,57 46.2,103.2 103.2,103.2 57,0 103.2,-46.2 103.2,-103.2 C 206.4,46.2 160.2,0 103.2,0 46.2,0 0,46.2 0,103.2 Z m 10.6,0 c 0,-51.2 41.5,-92.7 92.6,-92.7 51.1,0 92.6,41.5 92.6,92.7 0,51.2 -41.5,92.7 -92.6,92.7 -51.1,0 -92.6,-41.5 -92.6,-92.7 z" id="path4297" inkscape:connector-curvature="0" style="clip-rule:evenodd;fill:#17d8ff;fill-rule:evenodd"></path> <path class="st2" d="m 59.2,83.4 c 5,0 9.7,2 13.3,5.5 3.6,3.5 5.5,8.3 5.5,13.3 0,5 -2,9.8 -5.5,13.4 -3.5,3.6 -8.3,5.5 -13.3,5.5 -5,0 -9.7,-2 -13.3,-5.5 -3.5,-3.6 -5.5,-8.3 -5.5,-13.3 0,-5 2,-9.8 5.5,-13.3 3.6,-3.7 8.3,-5.6 13.3,-5.6 z m 43.9,-44.2 c 5,0 9.7,2 13.3,5.5 7.3,7.4 7.3,19.3 0,26.7 -3.5,3.6 -8.3,5.5 -13.3,5.5 -5,0 -9.7,-2 -13.3,-5.5 -7.3,-7.4 -7.3,-19.3 0,-26.7 3.5,-3.5 8.3,-5.5 13.3,-5.5 z m -1.8,86.5 c 5,0 9.7,2 13.3,5.5 3.5,3.6 5.5,8.3 5.5,13.4 0,5 -1.9,9.8 -5.5,13.4 -3.5,3.6 -8.3,5.5 -13.3,5.5 -5,0 -9.7,-2 -13.3,-5.5 -7.3,-7.4 -7.3,-19.3 0,-26.7 3.6,-3.6 8.3,-5.6 13.3,-5.6 z m 43.9,-40.5 c 4.1,0 7.9,1.6 10.8,4.5 2.9,2.9 4.5,6.7 4.5,10.8 0,4.1 -1.6,7.9 -4.5,10.8 -2.9,2.9 -6.7,4.5 -10.8,4.5 -4.1,0 -7.9,-1.6 -10.8,-4.5 -2.9,-2.9 -4.5,-6.7 -4.5,-10.8 0,-4.1 1.6,-7.9 4.5,-10.8 2.9,-2.9 6.7,-4.5 10.8,-4.5 z m -86,-5.4 c -5.7,0 -11.4,2.2 -15.8,6.6 -8.7,8.8 -8.7,23 0,31.8 4.4,4.4 10.1,6.6 15.8,6.6 5.7,0 11.4,-2.2 15.8,-6.6 8.3,-8.3 8.7,-21.6 1.2,-30.4 L 88.9,75.2 c 3.7,3.2 8.2,5 12.8,5.3 l 0,41.6 -0.1,0 c -5.7,0 -11.7,2.2 -16.1,6.6 -8.7,8.8 -8.7,23 0,31.8 4.4,4.4 10.1,6.6 15.8,6.6 5.7,0 11.4,-2.2 15.8,-6.6 7.7,-7.8 8.6,-19.8 2.6,-28.6 L 132.5,119 c 3.8,2.7 8.2,4 12.7,4 5.7,0 11.4,-2.2 15.8,-6.6 8.7,-8.8 8.7,-23 0,-31.8 -4.4,-4.4 -10.1,-6.6 -15.8,-6.6 -5.7,0 -11.4,2.2 -15.8,6.6 -8.7,8.8 -8.7,23 0,31.8 0.1,0.1 0.3,0.3 0.4,0.4 l -12.3,12.4 -0.8,-0.4 c -3.4,-3.4 -7.6,-5.5 -12.1,-6.3 l 0,-42 c 5,-0.5 9.9,-2.6 13.8,-6.5 8.7,-8.8 9.1,-23 0.4,-31.8 -4.4,-4.4 -10.1,-6.6 -15.8,-6.6 -5.7,0 -11.4,2.2 -15.8,6.6 -8.3,8.3 -8.7,21.6 -1.2,30.4 L 73.7,85.1 C 69.5,81.5 64.4,79.8 59.2,79.8 Z m 95.9,20.3 c 0,5.3 -3.4,10 -9.6,10.1 -6.5,0.1 -10.1,-4.3 -10.1,-9.6 0,-5.3 4.4,-10.2 9.7,-10.2 5.3,0 10,4.4 10,9.7 z" id="path4299" inkscape:connector-curvature="0" style="clip-rule:evenodd;fill:#cbf0fe;fill-rule:evenodd"></path> <g style="font-style:normal;font-weight:normal;font-size:40px;line-height:125%;font-family:sans-serif;letter-spacing:0px;word-spacing:0px;fill:#000000;fill-opacity:1;stroke:none;stroke-width:1px;stroke-linecap:butt;stroke-linejoin:miter;stroke-opacity:1" id="text4847"> <path d="m 290.82777,130.04214 q -1.71,-4.59 -3.24,-8.82 -1.53,-4.23 -2.97,-8.28 l -30.33,0 q -1.53,4.05 -3.06,8.28 -1.53,4.23 -3.15,8.82 l -6.39,0 q 3.6,-9.72 6.75,-18.09 3.15,-8.46 6.12,-15.929995 3.06,-7.56 6.03,-14.49 2.97,-6.93 6.3,-13.86 l 5.4,0 q 3.33,6.93 6.3,13.86 2.97,6.93 5.94,14.49 3.06,7.469995 6.21,15.929995 3.15,8.37 6.84,18.09 l -6.75,0 z m -21.42,-55.349995 q -3.42,7.74 -6.66,15.75 -3.15,8.01 -6.57,17.279995 l 26.55,0 q -3.42,-9.269995 -6.66,-17.279995 -3.24,-8.01 -6.66,-15.75 z" style="font-style:normal;font-variant:normal;font-weight:300;font-stretch:normal;font-size:90px;font-family:Ubuntu;-inkscape-font-specification:'Ubuntu Light'" id="path4238"></path> <path d="m 343.17402,128.60214 q -2.61,0.9 -6.66,1.71 -4.05,0.81 -10.26,0.81 -5.13,0 -9.36,-1.62 -4.14,-1.71 -7.2,-4.86 -2.97,-3.15 -4.68,-7.65 -1.62,-4.5 -1.62,-10.17 0,-5.31 1.35,-9.719995 1.44,-4.5 4.14,-7.74 2.7,-3.24 6.57,-5.04 3.96,-1.8 9,-1.8 4.59,0 7.92,1.35 3.42,1.26 4.95,2.43 l 0,-25.02 5.85,-1.08 0,68.399995 z m -5.85,-36.629995 q -0.81,-0.63 -2.07,-1.35 -1.17,-0.72 -2.79,-1.35 -1.62,-0.63 -3.51,-0.99 -1.89,-0.45 -3.96,-0.45 -4.32,0 -7.29,1.53 -2.88,1.53 -4.68,4.14 -1.8,2.52 -2.61,6.03 -0.81,3.419995 -0.81,7.289995 0,9.18 4.59,14.13 4.59,4.86 12.15,4.86 4.32,0 6.93,-0.36 2.7,-0.45 4.05,-0.9 l 0,-32.579995 z" style="font-style:normal;font-variant:normal;font-weight:300;font-stretch:normal;font-size:90px;font-family:Ubuntu;-inkscape-font-specification:'Ubuntu Light'" id="path4240"></path> <path d="m 398.25683,106.82214 q 0,5.49 -1.62,9.99 -1.53,4.5 -4.41,7.65 -2.79,3.15 -6.66,4.95 -3.87,1.71 -8.55,1.71 -4.68,0 -8.55,-1.71 -3.87,-1.8 -6.75,-4.95 -2.79,-3.15 -4.41,-7.65 -1.53,-4.5 -1.53,-9.99 0,-5.49 1.53,-9.989995 1.62,-4.5 4.41,-7.65 2.88,-3.24 6.75,-4.95 3.87,-1.8 8.55,-1.8 4.68,0 8.55,1.8 3.87,1.71 6.66,4.95 2.88,3.15 4.41,7.65 1.62,4.499995 1.62,9.989995 z m -6.21,0 q 0,-8.729995 -4.05,-13.859995 -4.05,-5.22 -10.98,-5.22 -6.93,0 -10.98,5.22 -4.05,5.13 -4.05,13.859995 0,8.73 4.05,13.86 4.05,5.13 10.98,5.13 6.93,0 10.98,-5.13 4.05,-5.13 4.05,-13.86 z" style="font-style:normal;font-variant:normal;font-weight:300;font-stretch:normal;font-size:90px;font-family:Ubuntu;-inkscape-font-specification:'Ubuntu Light'" id="path4242"></path> <path d="m 416.79964,86.302145 q 1.53,-1.17 4.86,-2.43 3.42,-1.35 8.01,-1.35 5.04,0 8.91,1.8 3.96,1.8 6.66,5.04 2.7,3.24 4.05,7.74 1.44,4.409995 1.44,9.719995 0,5.67 -1.71,10.17 -1.62,4.5 -4.68,7.65 -2.97,3.15 -7.2,4.86 -4.14,1.62 -9.27,1.62 -6.21,0 -10.26,-0.81 -4.05,-0.81 -6.66,-1.71 l 0,-67.319995 5.85,-1.08 0,26.1 z m 0,38.249995 q 1.35,0.45 3.96,0.9 2.7,0.36 7.02,0.36 7.56,0 12.15,-4.86 4.59,-4.95 4.59,-14.13 0,-3.87 -0.81,-7.289995 -0.81,-3.51 -2.61,-6.03 -1.8,-2.61 -4.77,-4.14 -2.88,-1.53 -7.2,-1.53 -2.07,0 -3.96,0.45 -1.89,0.36 -3.51,0.99 -1.62,0.63 -2.88,1.35 -1.17,0.72 -1.98,1.35 l 0,32.579995 z" style="font-style:normal;font-variant:normal;font-weight:300;font-stretch:normal;font-size:90px;font-family:Ubuntu;-inkscape-font-specification:'Ubuntu Light'" id="path4244"></path> <path d="m 460.54245,106.73214 q 0,-6.12 1.71,-10.619995 1.8,-4.59 4.59,-7.65 2.88,-3.06 6.48,-4.5 3.69,-1.53 7.56,-1.53 8.55,0 13.59,5.58 5.13,5.58 5.13,17.189995 0,0.72 -0.09,1.44 0,0.72 -0.09,1.35 l -32.67,0 q 0.27,8.55 4.23,13.14 3.96,4.59 12.6,4.59 4.77,0 7.56,-0.9 2.79,-0.9 4.05,-1.53 l 1.08,5.04 q -1.26,0.72 -4.77,1.71 -3.42,0.99 -8.1,0.99 -6.12,0 -10.44,-1.8 -4.32,-1.8 -7.11,-5.04 -2.79,-3.24 -4.05,-7.65 -1.26,-4.5 -1.26,-9.81 z m 33.03,-3.69 q -0.18,-7.289995 -3.42,-11.339995 -3.24,-4.05 -9.18,-4.05 -3.15,0 -5.67,1.26 -2.43,1.26 -4.32,3.42 -1.8,2.07 -2.88,4.86 -0.99,2.79 -1.17,5.849995 l 26.64,0 z" style="font-style:normal;font-variant:normal;font-weight:300;font-stretch:normal;font-size:90px;font-family:Ubuntu;-inkscape-font-specification:'Ubuntu Light'" id="path4246"></path> <path d="m 573.25339,67.672145 0,5.31 -19.98,0 0,57.059995 -6.12,0 0,-57.059995 -19.98,0 0,-5.31 46.08,0 z" style="font-style:normal;font-variant:normal;font-weight:300;font-stretch:normal;font-size:90px;font-family:Ubuntu;-inkscape-font-specification:'Ubuntu Light'" id="path4248"></path> <path d="m 594.19386,125.81214 q 3.42,0 5.94,-0.18 2.61,-0.27 4.41,-0.63 l 0,-16.38 q -0.99,-0.45 -3.15,-0.9 -2.16,-0.54 -5.94,-0.54 -2.16,0 -4.5,0.36 -2.34,0.27 -4.32,1.35 -1.98,0.99 -3.24,2.79 -1.26,1.8 -1.26,4.77 0,2.61 0.81,4.41 0.9,1.8 2.43,2.88 1.62,1.08 3.78,1.62 2.25,0.45 5.04,0.45 z m -0.54,-43.379995 q 4.59,0 7.74,1.35 3.24,1.26 5.22,3.6 1.98,2.25 2.88,5.4 0.9,3.15 0.9,6.84 l 0,29.339995 q -0.9,0.27 -2.61,0.63 -1.71,0.27 -3.96,0.63 -2.25,0.36 -5.04,0.54 -2.7,0.27 -5.58,0.27 -3.69,0 -6.84,-0.81 -3.06,-0.81 -5.4,-2.52 -2.25,-1.8 -3.6,-4.5 -1.26,-2.79 -1.26,-6.75 0,-3.78 1.44,-6.48 1.44,-2.7 4.05,-4.41 2.61,-1.8 6.21,-2.61 3.6,-0.81 7.83,-0.81 1.26,0 2.61,0.18 1.44,0.09 2.7,0.36 1.35,0.18 2.25,0.45 0.99,0.18 1.35,0.36 l 0,-2.88 q 0,-2.429995 -0.36,-4.679995 -0.36,-2.34 -1.62,-4.14 -1.17,-1.89 -3.42,-2.97 -2.16,-1.17 -5.76,-1.17 -5.13,0 -7.65,0.72 -2.52,0.72 -3.69,1.17 l -0.81,-5.13 q 1.53,-0.72 4.68,-1.35 3.24,-0.63 7.74,-0.63 z" style="font-style:normal;font-variant:normal;font-weight:300;font-stretch:normal;font-size:90px;font-family:Ubuntu;-inkscape-font-specification:'Ubuntu Light'" id="path4250"></path> <path d="m 641.24277,82.612145 q 2.88,0 5.4,0.45 2.61,0.45 3.6,0.9 l -1.17,5.04 q -0.72,-0.36 -2.97,-0.72 -2.16,-0.45 -5.76,-0.45 -3.78,0 -6.12,0.54 -2.25,0.54 -2.97,0.9 l 0,40.769995 -5.85,0 0,-44.369995 q 2.25,-0.99 6.21,-1.98 3.96,-1.08 9.63,-1.08 z" style="font-style:normal;font-variant:normal;font-weight:300;font-stretch:normal;font-size:90px;font-family:Ubuntu;-inkscape-font-specification:'Ubuntu Light'" id="path4252"></path> <path d="m 689.30698,124.64214 q -0.54,0.45 -1.62,1.08 -1.08,0.54 -2.7,1.17 -1.53,0.63 -3.6,1.08 -1.98,0.36 -4.5,0.36 -4.05,0 -7.83,-1.26 -3.78,-1.26 -6.66,-3.96 -2.79,-2.7 -4.5,-6.93 -1.71,-4.32 -1.71,-10.44 0,-4.95 1.53,-9.179995 1.53,-4.23 4.32,-7.29 2.88,-3.15 6.93,-4.86 4.14,-1.8 9.27,-1.8 6.48,0 10.35,0.9 3.96,0.81 6.48,1.62 l 0,42.479995 q 0,10.44 -5.4,14.85 -5.4,4.5 -16.29,4.5 -4.5,0 -8.19,-0.72 -3.6,-0.63 -6.21,-1.53 l 1.17,-5.31 q 2.16,0.99 5.85,1.71 3.78,0.72 7.56,0.72 8.28,0 11.97,-3.24 3.78,-3.15 3.78,-10.89 l 0,-3.06 z m -0.09,-35.459995 q -1.53,-0.45 -3.96,-0.81 -2.43,-0.45 -6.93,-0.45 -3.78,0 -6.75,1.35 -2.88,1.26 -4.95,3.69 -2.07,2.34 -3.15,5.67 -1.08,3.239995 -1.08,7.199995 0,4.59 1.26,7.92 1.26,3.24 3.24,5.31 2.07,2.07 4.68,3.06 2.61,0.9 5.31,0.9 3.96,0 7.2,-1.17 3.33,-1.17 5.13,-2.7 l 0,-29.969995 z" style="font-style:normal;font-variant:normal;font-weight:300;font-stretch:normal;font-size:90px;font-family:Ubuntu;-inkscape-font-specification:'Ubuntu Light'" id="path4254"></path> <path d="m 707.69089,106.73214 q 0,-6.12 1.71,-10.619995 1.8,-4.59 4.59,-7.65 2.88,-3.06 6.48,-4.5 3.69,-1.53 7.56,-1.53 8.55,0 13.59,5.58 5.13,5.58 5.13,17.189995 0,0.72 -0.09,1.44 0,0.72 -0.09,1.35 l -32.67,0 q 0.27,8.55 4.23,13.14 3.96,4.59 12.6,4.59 4.77,0 7.56,-0.9 2.79,-0.9 4.05,-1.53 l 1.08,5.04 q -1.26,0.72 -4.77,1.71 -3.42,0.99 -8.1,0.99 -6.12,0 -10.44,-1.8 -4.32,-1.8 -7.11,-5.04 -2.79,-3.24 -4.05,-7.65 -1.26,-4.5 -1.26,-9.81 z m 33.03,-3.69 q -0.18,-7.289995 -3.42,-11.339995 -3.24,-4.05 -9.18,-4.05 -3.15,0 -5.67,1.26 -2.43,1.26 -4.32,3.42 -1.8,2.07 -2.88,4.86 -0.99,2.79 -1.17,5.849995 l 26.64,0 z" style="font-style:normal;font-variant:normal;font-weight:300;font-stretch:normal;font-size:90px;font-family:Ubuntu;-inkscape-font-specification:'Ubuntu Light'" id="path4256"></path> <path d="m 765.36542,83.512145 18.54,0 0,4.95 -18.54,0 0,24.749995 q 0,3.96 0.63,6.48 0.72,2.43 1.98,3.78 1.26,1.35 3.06,1.8 1.8,0.45 3.96,0.45 3.69,0 5.94,-0.81 2.25,-0.9 3.51,-1.62 l 1.44,4.86 q -1.26,0.81 -4.41,1.89 -3.15,0.99 -6.84,0.99 -4.32,0 -7.29,-1.08 -2.88,-1.17 -4.68,-3.42 -1.71,-2.34 -2.43,-5.76 -0.72,-3.42 -0.72,-8.1 l 0,-42.839995 5.85,-1.08 0,14.76 z" style="font-style:normal;font-variant:normal;font-weight:300;font-stretch:normal;font-size:90px;font-family:Ubuntu;-inkscape-font-specification:'Ubuntu Light'" id="path4258"></path> </g> </svg> 